# xmcd
#
# Track frame offsets: 
#        150
#        16837
#        37137
#        56467
#        80862
#        100712
#        129017
#        146935
#        166317
#        182602
#        200037
#        233002
#        249280
#        268090
#        284720
#        313150
#
# Disc length: 4452 seconds
#
# Revision: 35
# Processed by: cddbd v1.5.2PL0 Copyright (c) Steve Scherf et al.
# Submitted via: ExactAudioCopy v0.99pb5
#
DISCID=e6116210
DTITLE=Sade - The Best Of Sade
DYEAR=1994
DGENRE=Soul
TTITLE0=Your Love Is King
TTITLE1=Hang On To Your Love
TTITLE2=Smooth Operator
TTITLE3=Jezebel
TTITLE4=The Sweetest Taboo
TTITLE5=Is It A Crime
TTITLE6=Never As Good As The First Time
TTITLE7=Love Is Stronger Than Pride
TTITLE8=Paradise
TTITLE9=Nothing Can Come Between Us
TTITLE10=No Ordinary Love
TTITLE11=Like A Tattoo
TTITLE12=Kiss Of Life
TTITLE13=Please Send Me Someone To Love
TTITLE14=Cherish The Day
TTITLE15=Pearls
EXTD=SADE - THE BEST OF (1984 - 1993]\nLabel: Epic - Sony\n4777932
EXTT0=
EXTT1=
EXTT2=
EXTT3=
EXTT4=
EXTT5=
EXTT6=
EXTT7=
EXTT8=
EXTT9=
EXTT10=
EXTT11=
EXTT12=
EXTT13=
EXTT14=
EXTT15=
PLAYORDER=
